# xmcd
#
# Track frame offsets:
#	150
#	13650
#	30232
#	45201
#	62355
#	76106
#	92491
#	109564
#	126416
#	148771
#	162271
#	178853
#	193822
#	210976
#	224727
#	241112
#	258185
#	275037
#
# Disc length: 3965 seconds
#
# Revision: 1
# Processed by: cddbd v1.5.2PL0 Copyright (c) Steve Scherf et al.
# Submitted via: audiograbber 1.83.01
#
DISCID=f00f7b12
DTITLE=Various Artist - 21003-07
DYEAR=2010
DGENRE=Country
TTITLE0=Alan Jackson - Hard Hat And A Hammer
TTITLE1=Chris Janson - Til A Woman Comes Along
TTITLE2=Carrie Underwood - Undo It
TTITLE3=Chuck Wicks - Hold That Thought
TTITLE4=Jason Aldean - Crazy Town
TTITLE5=Martin Ramey - Twisted
TTITLE6=Chely Wright - Broken
TTITLE7=Anthony Smith - Love Is Love Is Love
TTITLE8=The New Relics - Real Love
TTITLE9=Alan Jackson - Hard Hat and A Hammer-vcl
TTITLE10=Chris Janson - Til A Woman Comes Along-vcl
TTITLE11=Carrie Underwood - Undo It-vcl
TTITLE12=Chuck Wicks - Hold That Thought-vcl
TTITLE13=Jason Aldean - Crazy Town-vcl
TTITLE14=Marin Ramey - Twisted-vcl
TTITLE15=Chely Wright - Broken-vcl
TTITLE16=Anthony Smith - Love Is Love Is Love-vcl
TTITLE17=The New Relics - Real Love-vcl
EXTD=
EXTT0=
EXTT1=
EXTT2=
EXTT3=
EXTT4=
EXTT5=
EXTT6=
EXTT7=
EXTT8=
EXTT9=
EXTT10=
EXTT11=
EXTT12=
EXTT13=
EXTT14=
EXTT15=
EXTT16=
EXTT17=
PLAYORDER=
